# xmcd
#
# Track frame offsets: 
#        150
#        17635
#        29912
#        47130
#        65357
#        72992
#        87727
#        121627
#        135720
#        161112
#        179702
#        191942
#        209095
#        227220
#        235227
#        249307
#        283187
#        297262
#        323182
#
# Disc length: 4539 seconds
#
# Revision: 9
# Processed by: cddbd v1.5.2PL0 Copyright (c) Steve Scherf et al.
# Submitted via: ExactAudioCopyFreeDBPlugin 1.0
#
DISCID=3311b913
DTITLE=Marvin Gaye - What's Going On? (2001 SHM-CD Deluxe Edition) (Di
DTITLE=sc 1)
DYEAR=1971
DGENRE=R&B
TTITLE0=What's Going On
TTITLE1=What's Happening Brother
TTITLE2=Flyin' High (In The Friendly Sky)
TTITLE3=Save The Children
TTITLE4=God Is Love
TTITLE5=Mercy Mercy Me (The Ecology)
TTITLE6=Right On
TTITLE7=Wholy Holy
TTITLE8=Inner City Blues (Make Me Wanna Holler)
TTITLE9=What's Going On (Original Detroit Mix)
TTITLE10=What's Happening Brother (Original Detroit Mix)
TTITLE11=Flyin' High (In The Friendly Sky) (Original Detroit Mix)
TTITLE12=Save The Children (Original Detroit Mix)
TTITLE13=God Is Love (Original Detroit Mix)
TTITLE14=Mercy Mercy Me (The Ecology) (Original Detroit Mix)
TTITLE15=Right On (Original Detroit Mix)
TTITLE16=Wholy Holy (Original Detroit Mix)
TTITLE17=Inner City Blues (Make Me Wanna Holler) (Original Detroit Mix
TTITLE17=)
TTITLE18=What's Going On (Rhythm and Strings Mix)
EXTD=
EXTT0=
EXTT1=
EXTT2=
EXTT3=
EXTT4=
EXTT5=
EXTT6=
EXTT7=
EXTT8=
EXTT9=
EXTT10=
EXTT11=
EXTT12=
EXTT13=
EXTT14=
EXTT15=
EXTT16=
EXTT17=
EXTT18=
PLAYORDER=
